<svg width="300" height="300" viewBox="0 0 300 300" fill="none" xmlns="http://www.w3.org/2000/svg">
  <circle cx="150" cy="150" r="120" fill="#F0F4FF"/>
  
  <!-- Jester Hat -->
  <path d="M90 120C90 120 120 100 150 120C180 100 210 120 210 120C210 120 200 80 150 80C100 80 90 120 90 120Z" fill="#EF4444"/>
  <path d="M90 120C90 120 100 100 115 110C130 95 130 70 120 60" stroke="#EF4444" stroke-width="4" stroke-linecap="round"/>
  <circle cx="120" cy="60" r="10" fill="#F59E0B"/>
  
  <path d="M210 120C210 120 200 100 185 110C170 95 170 70 180 60" stroke="#EF4444" stroke-width="4" stroke-linecap="round"/>
  <circle cx="180" cy="60" r="10" fill="#F59E0B"/>
  
  <!-- Smiling Face -->
  <circle cx="150" cy="150" r="70" fill="#FBBF24" opacity="0.7"/>
  <circle cx="125" cy="130" r="10" fill="white"/>
  <circle cx="125" cy="130" r="5" fill="#1E293B"/>
  <circle cx="175" cy="130" r="10" fill="white"/>
  <circle cx="175" cy="130" r="5" fill="#1E293B"/>
  
  <path d="M120 170C120 170 135 190 150 190C165 190 180 170 180 170" stroke="#1E293B" stroke-width="4" stroke-linecap="round"/>
  
  <!-- Calendar -->
  <rect x="100" y="210" width="100" height="70" rx="4" fill="white" stroke="#6366F1" stroke-width="2"/>
  <rect x="100" y="210" width="100" height="20" rx="4" fill="#6366F1"/>
  <text x="135" y="225" font-family="Arial" font-size="14" font-weight="bold" fill="white">APRIL</text>
  
  <line x1="120" y1="240" x2="120" y2="280" stroke="#CBD5E1" stroke-width="1"/>
  <line x1="140" y1="240" x2="140" y2="280" stroke="#CBD5E1" stroke-width="1"/>
  <line x1="160" y1="240" x2="160" y2="280" stroke="#CBD5E1" stroke-width="1"/>
  <line x1="180" y1="240" x2="180" y2="280" stroke="#CBD5E1" stroke-width="1"/>
  
  <circle cx="120" cy="255" r="10" fill="#EEF2FF"/>
  <text x="116" y="259" font-family="Arial" font-size="12" fill="#6366F1">1</text>
  
  <!-- Confetti -->
  <rect x="80" y="100" width="8" height="8" rx="1" fill="#10B981" transform="rotate(45 80 100)"/>
  <rect x="220" y="100" width="8" height="8" rx="1" fill="#F59E0B" transform="rotate(12 220 100)"/>
  <rect x="90" y="200" width="8" height="8" rx="1" fill="#EC4899" transform="rotate(75 90 200)"/>
  <rect x="210" y="200" width="8" height="8" rx="1" fill="#8B5CF6" transform="rotate(120 210 200)"/>
  <rect x="150" y="60" width="8" height="8" rx="1" fill="#F59E0B" transform="rotate(33 150 60)"/>
  <rect x="70" y="150" width="8" height="8" rx="1" fill="#6366F1" transform="rotate(54 70 150)"/>
  <rect x="230" y="150" width="8" height="8" rx="1" fill="#EF4444" transform="rotate(21 230 150)"/>
</svg>