<svg width="500" height="400" viewBox="0 0 500 400" fill="none" xmlns="http://www.w3.org/2000/svg">
  <!-- Background Elements -->
  <circle cx="250" cy="200" r="150" fill="#F0F4FF"/>
  <path d="M50 350C50 350 100 300 200 320C300 340 400 300 450 250" stroke="#D1D5DB" stroke-width="2" stroke-dasharray="5 5"/>
  
  <!-- Computer/Screen -->
  <rect x="150" y="120" width="200" height="150" rx="8" fill="#1E293B"/>
  <rect x="160" y="130" width="180" height="120" rx="4" fill="#E2E8F0"/>
  
  <!-- Code on Screen -->
  <rect x="170" y="140" width="160" height="10" rx="2" fill="#CBD5E1"/>
  <rect x="170" y="155" width="100" height="8" rx="2" fill="#94A3B8"/>
  <rect x="170" y="168" width="120" height="8" rx="2" fill="#94A3B8"/>
  <rect x="170" y="181" width="80" height="8" rx="2" fill="#94A3B8"/>
  <rect x="170" y="194" width="140" height="8" rx="2" fill="#94A3B8"/>
  <rect x="170" y="207" width="90" height="8" rx="2" fill="#94A3B8"/>
  <rect x="170" y="220" width="110" height="8" rx="2" fill="#94A3B8"/>
  
  <!-- Computer Stand -->
  <path d="M220 270L230 290H270L280 270H220Z" fill="#1E293B"/>
  <rect x="240" y="290" width="20" height="10" rx="2" fill="#1E293B"/>
  
  <!-- AI Brain -->
  <circle cx="360" cy="120" r="40" fill="#EEF2FF"/>
  <path d="M340 110C340 110 350 95 370 100C390 105 385 125 370 130C355 135 345 125 340 110Z" fill="#C7D2FE"/>
  <path d="M350 140C350 140 360 150 380 145C400 140 400 120 385 115C370 110 360 120 350 140Z" fill="#A5B4FC"/>
  <path d="M375 100C375 100 390 110 395 125" stroke="#4F46E5" stroke-width="2" stroke-linecap="round"/>
  <path d="M345 140C345 140 355 135 375 140" stroke="#4F46E5" stroke-width="2" stroke-linecap="round"/>
  
  <!-- Connection Lines -->
  <path d="M320 120C320 120 290 100 270 130" stroke="#6366F1" stroke-width="2" stroke-dasharray="4 4"/>
  <circle cx="270" cy="130" r="5" fill="#6366F1"/>
  
  <!-- Lightning Bolt -->
  <path d="M360 180L370 160H350L360 140H375L365 160H385L360 180Z" fill="#6366F1"/>
  
  <!-- Floating Code Blocks -->
  <rect x="90" y="100" width="60" height="40" rx="4" fill="white" stroke="#6366F1" stroke-width="2"/>
  <rect x="100" y="110" width="40" height="5" rx="2" fill="#C7D2FE"/>
  <rect x="100" y="120" width="30" height="5" rx="2" fill="#C7D2FE"/>
  
  <rect x="400" y="200" width="60" height="40" rx="4" fill="white" stroke="#6366F1" stroke-width="2"/>
  <rect x="410" y="210" width="40" height="5" rx="2" fill="#C7D2FE"/>
  <rect x="410" y="220" width="30" height="5" rx="2" fill="#C7D2FE"/>
  
  <rect x="120" y="240" width="60" height="40" rx="4" fill="white" stroke="#6366F1" stroke-width="2"/>
  <rect x="130" y="250" width="40" height="5" rx="2" fill="#C7D2FE"/>
  <rect x="130" y="260" width="30" height="5" rx="2" fill="#C7D2FE"/>
  
  <!-- Decorative Elements -->
  <circle cx="100" cy="180" r="15" fill="#EEF2FF"/>
  <circle cx="100" cy="180" r="5" fill="#818CF8"/>
  
  <circle cx="400" cy="150" r="10" fill="#EEF2FF"/>
  <circle cx="400" cy="150" r="3" fill="#818CF8"/>
  
  <circle cx="420" cy="280" r="12" fill="#EEF2FF"/>
  <circle cx="420" cy="280" r="4" fill="#818CF8"/>
  
  <circle cx="150" cy="300" r="8" fill="#EEF2FF"/>
  <circle cx="150" cy="300" r="2" fill="#818CF8"/>
</svg>